<svg xmlns="http://www.w3.org/2000/svg" viewBox="0 0 1200 600" role="img" aria-labelledby="title desc">
  <title id="title">MASTER-MOLD MODE citadel hero</title>
  <desc id="desc">A clean wide hero showing a towering generic sentinel-like robot citadel with glowing eyes under a moonlit sky.</desc>

  <rect width="1200" height="600" fill="#090d16"/>
  <rect width="1200" height="600" fill="url(#sky)"/>
  <rect width="1200" height="600" fill="url(#grid)" opacity="0.38"/>

  <circle cx="602" cy="142" r="118" fill="#fff1b1"/>
  <circle cx="602" cy="142" r="176" fill="#86fff0" opacity="0.16"/>
  <circle cx="602" cy="142" r="228" fill="#ff5f72" opacity="0.08"/>

  <path d="M0 152 C134 102, 216 120, 318 178 C230 198, 144 218, 0 214 Z" fill="#284a68" opacity="0.82"/>
  <path d="M880 164 C998 102, 1088 108, 1200 158 L1200 236 C1090 214, 998 212, 880 220 Z" fill="#284a68" opacity="0.78"/>
  <path d="M0 242 C132 220, 248 240, 344 296 C222 318, 128 330, 0 316 Z" fill="#556383" opacity="0.5"/>
  <path d="M850 270 C976 222, 1086 228, 1200 272 L1200 348 C1088 344, 990 348, 858 334 Z" fill="#5f4b72" opacity="0.44"/>

  <g opacity="0.94">
    <path d="M54 314 L130 278 L178 292 L178 600 L0 600 L0 368 Z" fill="#4f2b47"/>
    <path d="M1022 302 L1088 276 L1148 292 L1200 362 L1200 600 L1024 600 Z" fill="#4f2b47"/>
    <rect x="120" y="324" width="34" height="176" fill="#2a2637"/>
    <rect x="1042" y="320" width="38" height="188" fill="#2a2637"/>
    <path d="M118 348 H214" stroke="#7d89a6" stroke-width="6" stroke-linecap="round" opacity="0.38"/>
    <path d="M992 342 H1080" stroke="#7d89a6" stroke-width="6" stroke-linecap="round" opacity="0.38"/>
    <rect x="164" y="350" width="18" height="118" fill="#232433"/>
    <rect x="1096" y="344" width="18" height="124" fill="#232433"/>
  </g>

  <g opacity="0.98">
    <path d="M84 448 C142 336, 252 308, 454 322 L496 380 L448 446 L194 482 Z" fill="#8f2359"/>
    <path d="M1118 448 C1060 336, 950 308, 748 322 L706 380 L754 446 L1008 482 Z" fill="#8f2359"/>
    <path d="M120 468 C192 382, 290 362, 430 370 L454 418 L414 478 L198 504 Z" fill="#511b3e"/>
    <path d="M1080 468 C1008 382, 910 362, 770 370 L746 418 L786 478 L1002 504 Z" fill="#511b3e"/>
    <rect x="142" y="452" width="70" height="118" rx="24" fill="#e4ba36"/>
    <rect x="988" y="452" width="70" height="118" rx="24" fill="#e4ba36"/>
  </g>

  <g opacity="0.99">
    <path d="M254 360 L946 360 L1028 600 L172 600 Z" fill="#5d526b"/>
    <path d="M310 388 L890 388 L944 600 L256 600 Z" fill="#433f56"/>
    <rect x="488" y="378" width="224" height="132" rx="24" fill="#cabee3"/>
    <path d="M518 398 H682 L690 412 V494 H510 V412 Z" fill="#dfb837"/>
    <path d="M392 402 H490 V510 H338 L350 438 Z" fill="#6e6385"/>
    <path d="M810 402 H708 V510 H862 L850 438 Z" fill="#6e6385"/>
    <path d="M466 486 L734 486 L778 600 L422 600 Z" fill="#7f7091"/>
    <rect x="536" y="474" width="128" height="126" fill="#06080d"/>
    <path d="M536 474 L600 414 L664 474" fill="none" stroke="#9384a7" stroke-width="10" stroke-linejoin="round"/>
    <rect x="438" y="538" width="52" height="18" rx="8" fill="#584f6e"/>
    <rect x="710" y="538" width="52" height="18" rx="8" fill="#584f6e"/>
  </g>

  <g opacity="0.95">
    <rect x="470" y="300" width="260" height="68" rx="18" fill="#2a2434"/>
    <rect x="502" y="316" width="196" height="38" rx="12" fill="#14131a"/>
    <rect x="512" y="326" width="56" height="18" rx="8" fill="#5e566d"/>
    <rect x="632" y="326" width="56" height="18" rx="8" fill="#5e566d"/>
  </g>

  <g opacity="0.98">
    <path d="M452 214 C492 128, 548 104, 600 104 C652 104, 708 128, 748 214 L748 288 L452 288 Z" fill="#8a2758"/>
    <path d="M498 146 L702 146 L748 214 H452 Z" fill="#a53167"/>
    <path d="M542 112 L658 112 L684 146 H516 Z" fill="#c4468a"/>
    <path d="M568 88 L632 88 L632 124 L568 124 Z" fill="#a98e2a"/>
    <path d="M506 162 L536 122 L566 122 L566 154 L544 178 L506 178 Z" fill="#d9b63b"/>
    <path d="M694 162 L664 122 L634 122 L634 154 L656 178 L694 178 Z" fill="#d9b63b"/>
    <rect x="432" y="210" width="38" height="108" rx="12" fill="#4b1f3e"/>
    <rect x="730" y="210" width="38" height="108" rx="12" fill="#4b1f3e"/>
    <path d="M494 196 H706 L722 214 L694 322 L506 322 L478 214 Z" fill="#2d252f"/>
    <path d="M520 216 H680 L692 226 L670 300 L530 300 L508 226 Z" fill="#12131a"/>
    <path d="M562 198 L600 176 L638 198 L632 224 H568 Z" fill="#5d5068"/>
    <path d="M534 286 L600 244 L666 286 L642 318 H558 Z" fill="#3f3948"/>
    <path d="M548 230 L582 230 L564 256 L530 256 Z" fill="#ff5f72"/>
    <path d="M652 230 L618 230 L636 256 L670 256 Z" fill="#ff5f72"/>
    <rect x="584" y="274" width="32" height="28" rx="8" fill="#05070b"/>
    <path d="M542 316 H658" stroke="#191b24" stroke-width="16" stroke-linecap="round"/>
  </g>

  <g filter="url(#eyeGlow)">
    <path d="M548 228 L580 228 L564 252 L530 252 Z" fill="#ff6876"/>
    <path d="M652 228 L620 228 L636 252 L670 252 Z" fill="#ff6876"/>
  </g>

  <g opacity="0.66" filter="url(#beamGlow)">
    <path d="M548 238 L458 210" stroke="#ff5466" stroke-width="14" stroke-linecap="round"/>
    <path d="M652 238 L742 210" stroke="#ff5466" stroke-width="14" stroke-linecap="round"/>
    <path d="M548 238 L468 248" stroke="#ff5466" stroke-width="10" stroke-linecap="round"/>
    <path d="M652 238 L732 248" stroke="#ff5466" stroke-width="10" stroke-linecap="round"/>
  </g>

  <path d="M0 534 C182 482, 344 486, 600 516 C856 486, 1018 482, 1200 534 L1200 600 L0 600 Z" fill="#05070d" opacity="0.6"/>

  <defs>
    <linearGradient id="sky" x1="0%" y1="0%" x2="0%" y2="100%">
      <stop offset="0%" stop-color="#18263d"/>
      <stop offset="48%" stop-color="#2b2d56"/>
      <stop offset="72%" stop-color="#44224a"/>
      <stop offset="100%" stop-color="#1a1726"/>
    </linearGradient>
    <pattern id="grid" width="24" height="24" patternUnits="userSpaceOnUse">
      <path d="M24 0 H0 V24" fill="none" stroke="#1c2232" stroke-width="1"/>
    </pattern>
    <filter id="eyeGlow" x="-40%" y="-80%" width="180%" height="220%">
      <feGaussianBlur stdDeviation="7" result="blur"/>
      <feMerge>
        <feMergeNode in="blur"/>
        <feMergeNode in="SourceGraphic"/>
      </feMerge>
    </filter>
    <filter id="beamGlow" x="-20%" y="-50%" width="140%" height="200%">
      <feGaussianBlur stdDeviation="6"/>
    </filter>
  </defs>
</svg>
